<svg width="18" height="19" viewBox="0 0 18 19" fill="none" xmlns="http://www.w3.org/2000/svg">
<rect y="0.5" width="18" height="18" rx="9" fill="#3DC26F"/>
<path d="M8.99987 5.75C6.99987 5.75 5.24987 7.35833 5.24987 9.5C5.24987 10.3833 5.5582 11.1958 6.0707 11.8375L5.3707 12.5375C5.29279 12.6154 5.24902 12.7211 5.24902 12.8313C5.24902 12.9414 5.29279 13.0471 5.3707 13.125C5.44861 13.2029 5.55427 13.2467 5.66445 13.2467C5.77463 13.2467 5.88029 13.2029 5.9582 13.125L6.6582 12.425C7.32178 12.9591 8.14805 13.2502 8.99987 13.25C9.9582 13.25 10.9207 12.8833 11.6499 12.15C11.9991 11.8028 12.2761 11.3899 12.4649 10.935C12.6537 10.4802 12.7506 9.99246 12.7499 9.5V6.58333C12.7499 6.125 12.3749 5.75 11.9165 5.75H8.99987ZM10.5957 9.60833L8.4457 11.5375C8.37903 11.6 8.27487 11.5958 8.21237 11.5333C8.18413 11.5052 8.16692 11.4678 8.16387 11.4281C8.16081 11.3883 8.1721 11.3488 8.1957 11.3167L9.21237 9.92917L7.52487 9.7625C7.48364 9.75863 7.44441 9.74289 7.41195 9.71719C7.37948 9.69148 7.35516 9.65692 7.34193 9.61768C7.3287 9.57844 7.32714 9.5362 7.33742 9.49609C7.3477 9.45598 7.36939 9.41971 7.39987 9.39167L9.54987 7.4625C9.61653 7.4 9.7207 7.40417 9.7832 7.46667C9.84153 7.525 9.84987 7.61667 9.79987 7.68333L8.7832 9.07083L10.4707 9.2375C10.6582 9.25417 10.7332 9.48333 10.5957 9.60833Z" fill="white"/>
</svg>
