<svg width="360" height="360" viewBox="0 0 360 360" fill="none" xmlns="http://www.w3.org/2000/svg">
<path fill-rule="evenodd" clip-rule="evenodd" d="M9.36 104.814C0 121.86 0 142.47 0 183.654V211.05C0 281.25 -2.14577e-06 316.368 21.096 338.184C42.174 360 76.122 360 144 360H216C283.878 360 317.826 360 338.904 338.184C360 316.368 360 281.268 360 211.05V183.672C360 142.47 360 121.878 350.64 104.814C341.316 87.732 324.234 77.148 290.088 55.944L254.088 33.606C217.998 11.196 199.944 0 180 0C160.056 0 142.02 11.196 105.912 33.606L69.912 55.944C35.766 77.148 18.702 87.732 9.36 104.814ZM166.5 288C166.5 291.58 167.922 295.014 170.454 297.546C172.986 300.078 176.42 301.5 180 301.5C183.58 301.5 187.014 300.078 189.546 297.546C192.078 295.014 193.5 291.58 193.5 288V234C193.5 230.42 192.078 226.986 189.546 224.454C187.014 221.922 183.58 220.5 180 220.5C176.42 220.5 172.986 221.922 170.454 224.454C167.922 226.986 166.5 230.42 166.5 234V288Z" fill="black" fill-opacity="0.5"/>
</svg>
