<svg width="258" height="249" viewBox="0 0 258 249" fill="none" xmlns="http://www.w3.org/2000/svg">
<path opacity="0.5" d="M0 77.3196V193.862C0 208.817 0 216.301 4.05633 221.936C8.11267 227.571 15.2077 229.937 29.3977 234.669L46.096 240.232C65.6897 246.77 75.4793 250.04 85.355 248.706L86 248.62V47.883C84.3853 48.1235 82.7582 48.272 81.1267 48.3275C73.3867 48.5999 65.7327 46.0333 50.439 40.9432C30.401 34.2615 20.382 30.9207 12.7567 34.3189C10.0544 35.5216 7.62934 37.269 5.633 39.452C-1.70867e-06 45.6318 0 56.1849 0 77.3196ZM258 171.666V55.1382C258 40.1833 258 32.6986 253.944 27.0637C249.887 21.4287 242.792 19.0629 228.602 14.3312L211.904 8.76791C192.31 2.22961 182.521 -1.03953 172.645 0.293936L172 0.365626V201.103C173.624 200.864 175.249 200.716 176.873 200.658C184.613 200.386 192.267 202.952 207.561 208.042C227.599 214.724 237.618 218.065 245.243 214.667C247.946 213.464 250.371 211.717 252.367 209.534C258 203.354 258 192.801 258 171.666Z" fill="#F45E5E"/>
<path d="M89.5398 47.2092C88.3645 47.4672 87.1844 47.6919 85.9995 47.8831V248.62C95.6028 247.129 104.189 241.408 121.002 230.195L140.81 216.975C154.226 208.028 160.934 203.555 168.474 201.777C169.62 201.49 170.796 201.265 172 201.103V0.365723C162.396 1.84257 153.811 7.57792 136.998 18.7762L117.189 31.9961C103.773 40.9433 97.0648 45.4169 89.5255 47.1948" fill="#F45E5E"/>
</svg>
