<svg width="13" height="15" viewBox="0 0 13 15" fill="none" xmlns="http://www.w3.org/2000/svg">
<path d="M11.0079 2.28383C12.1783 3.45409 12.8477 5.03366 12.8745 6.68854C12.9013 8.34342 12.2835 9.94386 11.1517 11.1515L11.0079 11.3002L8.00241 14.305C7.62107 14.6861 7.10912 14.908 6.57027 14.9257C6.03143 14.9435 5.50598 14.7558 5.10037 14.4006L4.99837 14.305L1.99221 11.2995C0.796654 10.1039 0.125 8.48243 0.125 6.79167C0.125 5.1009 0.796654 3.47938 1.99221 2.28383C3.18776 1.08828 4.80927 0.416626 6.50004 0.416626C8.1908 0.416626 9.81232 1.08828 11.0079 2.28383ZM6.50004 4.66667C6.22098 4.66667 5.94465 4.72163 5.68684 4.82842C5.42902 4.93521 5.19476 5.09174 4.99744 5.28906C4.80011 5.48639 4.64359 5.72065 4.53679 5.97846C4.43 6.23628 4.37504 6.51261 4.37504 6.79167C4.37504 7.07072 4.43 7.34705 4.53679 7.60487C4.64359 7.86268 4.80011 8.09694 4.99744 8.29427C5.19476 8.49159 5.42902 8.64812 5.68684 8.75491C5.94465 8.8617 6.22098 8.91667 6.50004 8.91667C7.06362 8.91667 7.60413 8.69278 8.00264 8.29427C8.40116 7.89575 8.62504 7.35525 8.62504 6.79167C8.62504 6.22808 8.40116 5.68758 8.00264 5.28906C7.60413 4.89055 7.06362 4.66667 6.50004 4.66667Z" fill="#F45E5E"/>
</svg>
