<svg width="17" height="17" viewBox="0 0 17 17" fill="none" xmlns="http://www.w3.org/2000/svg">
<path d="M13.0079 3.28383C14.1783 4.45409 14.8477 6.03366 14.8745 7.68854C14.9013 9.34342 14.2835 10.9439 13.1517 12.1515L13.0079 12.3002L10.0024 15.305C9.62107 15.6861 9.10912 15.908 8.57027 15.9257C8.03143 15.9435 7.50598 15.7558 7.10037 15.4006L6.99837 15.305L3.99221 12.2995C2.79665 11.1039 2.125 9.48243 2.125 7.79167C2.125 6.1009 2.79665 4.47938 3.99221 3.28383C5.18776 2.08828 6.80927 1.41663 8.50004 1.41663C10.1908 1.41663 11.8123 2.08828 13.0079 3.28383ZM8.50004 5.66667C8.22098 5.66667 7.94465 5.72163 7.68684 5.82842C7.42902 5.93521 7.19476 6.09174 6.99744 6.28906C6.80011 6.48639 6.64359 6.72065 6.53679 6.97846C6.43 7.23628 6.37504 7.51261 6.37504 7.79167C6.37504 8.07072 6.43 8.34705 6.53679 8.60487C6.64359 8.86268 6.80011 9.09694 6.99744 9.29427C7.19476 9.49159 7.42902 9.64812 7.68684 9.75491C7.94465 9.8617 8.22098 9.91667 8.50004 9.91667C9.06362 9.91667 9.60413 9.69278 10.0026 9.29427C10.4012 8.89575 10.625 8.35525 10.625 7.79167C10.625 7.22808 10.4012 6.68758 10.0026 6.28906C9.60413 5.89055 9.06362 5.66667 8.50004 5.66667Z" fill="#F45E5E"/>
</svg>
