<svg width="145" height="145" viewBox="0 0 145 145" fill="none" xmlns="http://www.w3.org/2000/svg">
<path fill-rule="evenodd" clip-rule="evenodd" d="M40.6667 32.7083C40.6667 24.2656 44.0205 16.1687 49.9904 10.1988C55.9603 4.22886 64.0573 0.875 72.5 0.875C80.9427 0.875 89.0397 4.22886 95.0096 10.1988C100.979 16.1687 104.333 24.2656 104.333 32.7083C104.333 41.1511 100.979 49.248 95.0096 55.2179C89.0397 61.1878 80.9427 64.5417 72.5 64.5417C64.0573 64.5417 55.9603 61.1878 49.9904 55.2179C44.0205 49.248 40.6667 41.1511 40.6667 32.7083ZM40.6667 80.4583C30.1133 80.4583 19.9921 84.6507 12.5297 92.113C5.06732 99.5754 0.875 109.697 0.875 120.25C0.875 126.582 3.3904 132.655 7.86783 137.132C12.3453 141.61 18.418 144.125 24.75 144.125H120.25C126.582 144.125 132.655 141.61 137.132 137.132C141.61 132.655 144.125 126.582 144.125 120.25C144.125 109.697 139.933 99.5754 132.47 92.113C125.008 84.6507 114.887 80.4583 104.333 80.4583H40.6667Z" fill="black" fill-opacity="0.5"/>
</svg>
